<svg xmlns="http://www.w3.org/2000/svg" viewBox="0 0 20 20" width="20" height="20">
	<style>
		tspan { white-space:pre }
		.shp0 { fill: #e6e4e4 } 
	</style>
	<path id="cart icon" class="shp0" d="M6 16C4.9 16 4.01 16.9 4.01 18C4.01 19.1 4.9 20 6 20C7.1 20 8 19.1 8 18C8 16.9 7.1 16 6 16L6 16L6 16ZM0 0L0 2L2 2L5.6 9.59L4.25 12.04C4.09 12.32 4 12.65 4 13C4 14.1 4.9 15 6 15L18 15L18 13L6.42 13C6.28 13 6.17 12.89 6.17 12.75L6.2 12.63L7.1 11L14.55 11C15.3 11 15.96 10.59 16.3 9.97L19.88 3.48C19.96 3.34 20 3.17 20 3C20 2.45 19.55 2 19 2L4.21 2L3.27 0L0 0L0 0L0 0ZM16 16C14.9 16 14.01 16.9 14.01 18C14.01 19.1 14.9 20 16 20C17.1 20 18 19.1 18 18C18 16.9 17.1 16 16 16L16 16L16 16Z" />
</svg>