<svg xmlns="http://www.w3.org/2000/svg" viewBox="0 0 21 20" width="21" height="20">
	<style>
		tspan { white-space:pre }
		.shp0 { fill: #808080 } 
	</style>
	<path id="icon" class="shp0" d="M16 16C14.9 16 14.01 16.9 14.01 18C14.01 19.1 14.9 20 16 20C17.1 20 18 19.1 18 18C18 16.9 17.1 16 16 16ZM4.01 18C4.01 19.1 4.9 20 6 20C7.1 20 8 19.1 8 18C8 16.9 7.1 16 6 16C4.9 16 4.01 16.9 4.01 18ZM17.31 4L5.16 4L7.4 8.73L7.53 9L14.55 9L17.31 4ZM4.21 2L19.99 2L20 2L20.16 2.96L16.3 9.97C15.96 10.59 15.3 11 14.55 11L7.1 11L6.2 12.63L6.17 12.75C6.17 12.89 6.29 13 6.42 13L18 13L18 15L6 15C4.9 15 4 14.1 4 13C4 12.65 4.09 12.32 4.25 12.04L5.6 9.59L2 2L0 2L0 0L3.27 0L4.21 2Z" />
</svg>