<svg xmlns="http://www.w3.org/2000/svg" viewBox="0 0 16 16" width="16" height="16">
	<style>
		tspan { white-space:pre }
		.shp0 { fill: #666666 } 
	</style>
	<path id="instagram icon" class="shp0" d="M11.01 2L4.93 2C4.04 2 3.27 2.28 2.77 2.77C2.28 3.27 2 4.05 2 4.93L2 11.01C2 11.9 2.28 12.67 2.83 13.23C3.38 13.72 4.1 14 4.98 14L11.01 14C11.9 14 12.67 13.72 13.17 13.23C13.72 12.73 14 11.95 14 11.07L14 4.99C14 4.1 13.72 3.38 13.23 2.83C12.67 2.28 11.95 2 11.01 2ZM16 11.31C16 12.69 15.52 13.89 14.67 14.74C13.83 15.58 12.62 16 11.29 16L4.71 16C3.38 16 2.17 15.58 1.33 14.74C0.42 13.89 0 12.69 0 11.31L0 4.69C0 1.92 1.87 0 4.71 0L11.35 0C12.74 0 13.89 0.48 14.73 1.32C15.58 2.17 16 3.31 16 4.69L16 11.31ZM8 10C9.11 10 10 9.1 10 8C10 6.9 9.11 6 8 6C6.9 6 6 6.9 6 8C6 9.1 6.9 10 8 10ZM7.97 12C5.75 12 4 10.18 4 8C4 5.76 5.81 4 7.97 4C10.13 4 12 5.76 12 8C12 10.24 10.19 12 7.97 12ZM12 5C11.44 5 11 4.56 11 4C11 3.44 11.44 3 12 3C12.56 3 13 3.44 13 4C13 4.56 12.56 5 12 5Z" />
</svg>