<svg xmlns="http://www.w3.org/2000/svg" viewBox="0 0 14 12" width="14" height="12">
	<style>
		tspan { white-space:pre }
		.shp0 { fill: #666666 } 
	</style>
	<path id="twitter icon" class="shp0" d="M14 1.53C13.48 1.77 12.92 1.93 12.35 2C12.95 1.63 13.4 1.04 13.62 0.36C13.05 0.7 12.44 0.95 11.79 1.08C11.25 0.48 10.49 0.14 9.69 0.14C8.92 0.15 8.19 0.46 7.65 1.02C7.11 1.58 6.81 2.33 6.82 3.11C6.82 3.34 6.84 3.57 6.89 3.79C4.58 3.66 2.42 2.54 0.97 0.69C0.21 2.04 0.6 3.77 1.86 4.65C1.41 4.63 0.96 4.51 0.56 4.28L0.56 4.32C0.55 5.72 1.52 6.94 2.87 7.23C2.44 7.34 2 7.36 1.57 7.28C1.94 8.48 3.02 9.31 4.25 9.34C3.24 10.16 1.98 10.61 0.69 10.61C0.46 10.69 0.21 10.67 0 10.57C1.31 11.44 2.84 11.9 4.4 11.9C6.59 11.9 8.68 11.01 10.22 9.42C11.75 7.84 12.6 5.69 12.57 3.46C12.57 3.33 12.57 3.2 12.56 3.07C13.13 2.65 13.62 2.13 14 1.53Z" />
</svg>