<svg xmlns="http://www.w3.org/2000/svg" viewBox="0 0 22 12" width="22" height="12">
	<style>
		tspan { white-space:pre }
		.shp0 { fill: #b5b5b5 } 
	</style>
	<path id="game icon" class="shp0" d="M18.5 6C17.67 6 17 5.33 17 4.5C17 3.67 17.67 3 18.5 3C19.33 3 20 3.67 20 4.5C20 5.33 19.33 6 18.5 6ZM14.5 9C13.67 9 13 8.33 13 7.5C13 6.67 13.67 6 14.5 6C15.33 6 16 6.67 16 7.5C16 8.33 15.33 9 14.5 9ZM10 7L7 7L7 10L5 10L5 7L2 7L2 5L5 5L5 2L7 2L7 5L10 5L10 7ZM20 0L2 0C0.9 0 0 0.9 0 2L0 10C0 11.1 0.9 12 2 12L20 12C21.1 12 22 11.1 22 10L22 2C22 0.9 21.1 0 20 0Z" />
</svg>