<svg xmlns="http://www.w3.org/2000/svg" viewBox="0 0 18 18" width="18" height="18">
	<style>
		tspan { white-space:pre }
		.shp0 { fill: #cccccc } 
	</style>
	<path id="memory icon" class="shp0" d="M14 14L4 14L4 4L14 4L14 14ZM18 8L18 6L16 6L16 4C16 2.9 15.1 2 14 2L12 2L12 0L10 0L10 2L8 2L8 0L6 0L6 2L4 2C2.9 2 2 2.9 2 4L2 6L0 6L0 8L2 8L2 10L0 10L0 12L2 12L2 14C2 15.1 2.9 16 4 16L6 16L6 18L8 18L8 16L10 16L10 18L12 18L12 16L14 16C15.1 16 16 15.1 16 14L16 12L18 12L18 10L16 10L16 8L18 8ZM10 10L8 10L8 8L10 8L10 10ZM12 6L6 6L6 12L12 12L12 6Z" />
</svg>