<svg xmlns="http://www.w3.org/2000/svg" viewBox="0 0 14 20" width="14" height="20">
	<style>
		tspan { white-space:pre }
		.shp0 { fill: #cccccc } 
	</style>
	<path id="speaker icon" class="shp0" d="M7 10C5.34 10 4 11.34 4 13C4 14.66 5.34 16 7 16C8.66 16 10 14.66 10 13C10 11.34 8.66 10 7 10ZM7 18C4.24 18 2 15.76 2 13C2 10.24 4.24 8 7 8C9.76 8 12 10.24 12 13C12 15.76 9.76 18 7 18ZM7 2C8.1 2 9 2.9 9 4C9 5.1 8.1 6 7 6C5.89 6 5 5.1 5 4C5 2.9 5.89 2 7 2ZM12 0L2 0C0.9 0 0 0.9 0 2L0 18C0 19.1 0.9 19.99 2 19.99L12 20C13.1 20 14 19.1 14 18L14 2C14 0.9 13.1 0 12 0Z" />
</svg>